%
M48
M72
T01C0.01200
T02C0.03500
T03C0.11811
%
T01
X19438Y5701
X31438Y5701
X41438Y5701
X34238Y21301
X33438Y33101
X40038Y33201
X45838Y41201
X48238Y48701
X51938Y48701
X51938Y52701
X57238Y49901
X64538Y57301
X66438Y62301
X57938Y65701
X57938Y68701
X50938Y68701
X50538Y64301
X45838Y69301
X43138Y62901
X38138Y61201
X26638Y61301
X17938Y55701
X17938Y51701
X17938Y47701
X50938Y75701
X50938Y78701
X50938Y84701
X47538Y84401
X42938Y84701
X42938Y81701
X54938Y84701
X58938Y84701
X84938Y55701
X84938Y51701
X84938Y47701
X57238Y36101
X54638Y38701
X71438Y5701
X83438Y5701
T02
X76309Y8000
X66309Y8000
X56309Y8000
X46309Y8000
X36309Y8000
X26309Y8000
T03
X19812Y25323
X82805Y25323
M30
