G75*
%MOIN*%
%OFA0B0*%
%FSLAX25Y25*%
%IPPOS*%
%LPD*%
%AMOC8*
5,1,8,0,0,1.08239X$1,22.5*
%
%ADD10C,0.00100*%
%ADD11C,0.00000*%
%ADD12C,0.00400*%
%ADD13C,0.00500*%
%ADD14C,0.01575*%
%ADD15C,0.01000*%
%ADD16C,0.01575*%
D10*
X0011938Y0001701D02*
X0011938Y0066268D01*
X0039498Y0066268D01*
X0039498Y0088315D01*
X0063120Y0088315D01*
X0063120Y0066268D01*
X0090679Y0066268D01*
X0090679Y0001701D01*
X0011938Y0001701D01*
D11*
X0013906Y0025323D02*
X0013908Y0025476D01*
X0013914Y0025630D01*
X0013924Y0025783D01*
X0013938Y0025935D01*
X0013956Y0026088D01*
X0013978Y0026239D01*
X0014003Y0026390D01*
X0014033Y0026541D01*
X0014067Y0026691D01*
X0014104Y0026839D01*
X0014145Y0026987D01*
X0014190Y0027133D01*
X0014239Y0027279D01*
X0014292Y0027423D01*
X0014348Y0027565D01*
X0014408Y0027706D01*
X0014472Y0027846D01*
X0014539Y0027984D01*
X0014610Y0028120D01*
X0014685Y0028254D01*
X0014762Y0028386D01*
X0014844Y0028516D01*
X0014928Y0028644D01*
X0015016Y0028770D01*
X0015107Y0028893D01*
X0015201Y0029014D01*
X0015299Y0029132D01*
X0015399Y0029248D01*
X0015503Y0029361D01*
X0015609Y0029472D01*
X0015718Y0029580D01*
X0015830Y0029685D01*
X0015944Y0029786D01*
X0016062Y0029885D01*
X0016181Y0029981D01*
X0016303Y0030074D01*
X0016428Y0030163D01*
X0016555Y0030250D01*
X0016684Y0030332D01*
X0016815Y0030412D01*
X0016948Y0030488D01*
X0017083Y0030561D01*
X0017220Y0030630D01*
X0017359Y0030695D01*
X0017499Y0030757D01*
X0017641Y0030815D01*
X0017784Y0030870D01*
X0017929Y0030921D01*
X0018075Y0030968D01*
X0018222Y0031011D01*
X0018370Y0031050D01*
X0018519Y0031086D01*
X0018669Y0031117D01*
X0018820Y0031145D01*
X0018971Y0031169D01*
X0019124Y0031189D01*
X0019276Y0031205D01*
X0019429Y0031217D01*
X0019582Y0031225D01*
X0019735Y0031229D01*
X0019889Y0031229D01*
X0020042Y0031225D01*
X0020195Y0031217D01*
X0020348Y0031205D01*
X0020500Y0031189D01*
X0020653Y0031169D01*
X0020804Y0031145D01*
X0020955Y0031117D01*
X0021105Y0031086D01*
X0021254Y0031050D01*
X0021402Y0031011D01*
X0021549Y0030968D01*
X0021695Y0030921D01*
X0021840Y0030870D01*
X0021983Y0030815D01*
X0022125Y0030757D01*
X0022265Y0030695D01*
X0022404Y0030630D01*
X0022541Y0030561D01*
X0022676Y0030488D01*
X0022809Y0030412D01*
X0022940Y0030332D01*
X0023069Y0030250D01*
X0023196Y0030163D01*
X0023321Y0030074D01*
X0023443Y0029981D01*
X0023562Y0029885D01*
X0023680Y0029786D01*
X0023794Y0029685D01*
X0023906Y0029580D01*
X0024015Y0029472D01*
X0024121Y0029361D01*
X0024225Y0029248D01*
X0024325Y0029132D01*
X0024423Y0029014D01*
X0024517Y0028893D01*
X0024608Y0028770D01*
X0024696Y0028644D01*
X0024780Y0028516D01*
X0024862Y0028386D01*
X0024939Y0028254D01*
X0025014Y0028120D01*
X0025085Y0027984D01*
X0025152Y0027846D01*
X0025216Y0027706D01*
X0025276Y0027565D01*
X0025332Y0027423D01*
X0025385Y0027279D01*
X0025434Y0027133D01*
X0025479Y0026987D01*
X0025520Y0026839D01*
X0025557Y0026691D01*
X0025591Y0026541D01*
X0025621Y0026390D01*
X0025646Y0026239D01*
X0025668Y0026088D01*
X0025686Y0025935D01*
X0025700Y0025783D01*
X0025710Y0025630D01*
X0025716Y0025476D01*
X0025718Y0025323D01*
X0025716Y0025170D01*
X0025710Y0025016D01*
X0025700Y0024863D01*
X0025686Y0024711D01*
X0025668Y0024558D01*
X0025646Y0024407D01*
X0025621Y0024256D01*
X0025591Y0024105D01*
X0025557Y0023955D01*
X0025520Y0023807D01*
X0025479Y0023659D01*
X0025434Y0023513D01*
X0025385Y0023367D01*
X0025332Y0023223D01*
X0025276Y0023081D01*
X0025216Y0022940D01*
X0025152Y0022800D01*
X0025085Y0022662D01*
X0025014Y0022526D01*
X0024939Y0022392D01*
X0024862Y0022260D01*
X0024780Y0022130D01*
X0024696Y0022002D01*
X0024608Y0021876D01*
X0024517Y0021753D01*
X0024423Y0021632D01*
X0024325Y0021514D01*
X0024225Y0021398D01*
X0024121Y0021285D01*
X0024015Y0021174D01*
X0023906Y0021066D01*
X0023794Y0020961D01*
X0023680Y0020860D01*
X0023562Y0020761D01*
X0023443Y0020665D01*
X0023321Y0020572D01*
X0023196Y0020483D01*
X0023069Y0020396D01*
X0022940Y0020314D01*
X0022809Y0020234D01*
X0022676Y0020158D01*
X0022541Y0020085D01*
X0022404Y0020016D01*
X0022265Y0019951D01*
X0022125Y0019889D01*
X0021983Y0019831D01*
X0021840Y0019776D01*
X0021695Y0019725D01*
X0021549Y0019678D01*
X0021402Y0019635D01*
X0021254Y0019596D01*
X0021105Y0019560D01*
X0020955Y0019529D01*
X0020804Y0019501D01*
X0020653Y0019477D01*
X0020500Y0019457D01*
X0020348Y0019441D01*
X0020195Y0019429D01*
X0020042Y0019421D01*
X0019889Y0019417D01*
X0019735Y0019417D01*
X0019582Y0019421D01*
X0019429Y0019429D01*
X0019276Y0019441D01*
X0019124Y0019457D01*
X0018971Y0019477D01*
X0018820Y0019501D01*
X0018669Y0019529D01*
X0018519Y0019560D01*
X0018370Y0019596D01*
X0018222Y0019635D01*
X0018075Y0019678D01*
X0017929Y0019725D01*
X0017784Y0019776D01*
X0017641Y0019831D01*
X0017499Y0019889D01*
X0017359Y0019951D01*
X0017220Y0020016D01*
X0017083Y0020085D01*
X0016948Y0020158D01*
X0016815Y0020234D01*
X0016684Y0020314D01*
X0016555Y0020396D01*
X0016428Y0020483D01*
X0016303Y0020572D01*
X0016181Y0020665D01*
X0016062Y0020761D01*
X0015944Y0020860D01*
X0015830Y0020961D01*
X0015718Y0021066D01*
X0015609Y0021174D01*
X0015503Y0021285D01*
X0015399Y0021398D01*
X0015299Y0021514D01*
X0015201Y0021632D01*
X0015107Y0021753D01*
X0015016Y0021876D01*
X0014928Y0022002D01*
X0014844Y0022130D01*
X0014762Y0022260D01*
X0014685Y0022392D01*
X0014610Y0022526D01*
X0014539Y0022662D01*
X0014472Y0022800D01*
X0014408Y0022940D01*
X0014348Y0023081D01*
X0014292Y0023223D01*
X0014239Y0023367D01*
X0014190Y0023513D01*
X0014145Y0023659D01*
X0014104Y0023807D01*
X0014067Y0023955D01*
X0014033Y0024105D01*
X0014003Y0024256D01*
X0013978Y0024407D01*
X0013956Y0024558D01*
X0013938Y0024711D01*
X0013924Y0024863D01*
X0013914Y0025016D01*
X0013908Y0025170D01*
X0013906Y0025323D01*
X0076899Y0025323D02*
X0076901Y0025476D01*
X0076907Y0025630D01*
X0076917Y0025783D01*
X0076931Y0025935D01*
X0076949Y0026088D01*
X0076971Y0026239D01*
X0076996Y0026390D01*
X0077026Y0026541D01*
X0077060Y0026691D01*
X0077097Y0026839D01*
X0077138Y0026987D01*
X0077183Y0027133D01*
X0077232Y0027279D01*
X0077285Y0027423D01*
X0077341Y0027565D01*
X0077401Y0027706D01*
X0077465Y0027846D01*
X0077532Y0027984D01*
X0077603Y0028120D01*
X0077678Y0028254D01*
X0077755Y0028386D01*
X0077837Y0028516D01*
X0077921Y0028644D01*
X0078009Y0028770D01*
X0078100Y0028893D01*
X0078194Y0029014D01*
X0078292Y0029132D01*
X0078392Y0029248D01*
X0078496Y0029361D01*
X0078602Y0029472D01*
X0078711Y0029580D01*
X0078823Y0029685D01*
X0078937Y0029786D01*
X0079055Y0029885D01*
X0079174Y0029981D01*
X0079296Y0030074D01*
X0079421Y0030163D01*
X0079548Y0030250D01*
X0079677Y0030332D01*
X0079808Y0030412D01*
X0079941Y0030488D01*
X0080076Y0030561D01*
X0080213Y0030630D01*
X0080352Y0030695D01*
X0080492Y0030757D01*
X0080634Y0030815D01*
X0080777Y0030870D01*
X0080922Y0030921D01*
X0081068Y0030968D01*
X0081215Y0031011D01*
X0081363Y0031050D01*
X0081512Y0031086D01*
X0081662Y0031117D01*
X0081813Y0031145D01*
X0081964Y0031169D01*
X0082117Y0031189D01*
X0082269Y0031205D01*
X0082422Y0031217D01*
X0082575Y0031225D01*
X0082728Y0031229D01*
X0082882Y0031229D01*
X0083035Y0031225D01*
X0083188Y0031217D01*
X0083341Y0031205D01*
X0083493Y0031189D01*
X0083646Y0031169D01*
X0083797Y0031145D01*
X0083948Y0031117D01*
X0084098Y0031086D01*
X0084247Y0031050D01*
X0084395Y0031011D01*
X0084542Y0030968D01*
X0084688Y0030921D01*
X0084833Y0030870D01*
X0084976Y0030815D01*
X0085118Y0030757D01*
X0085258Y0030695D01*
X0085397Y0030630D01*
X0085534Y0030561D01*
X0085669Y0030488D01*
X0085802Y0030412D01*
X0085933Y0030332D01*
X0086062Y0030250D01*
X0086189Y0030163D01*
X0086314Y0030074D01*
X0086436Y0029981D01*
X0086555Y0029885D01*
X0086673Y0029786D01*
X0086787Y0029685D01*
X0086899Y0029580D01*
X0087008Y0029472D01*
X0087114Y0029361D01*
X0087218Y0029248D01*
X0087318Y0029132D01*
X0087416Y0029014D01*
X0087510Y0028893D01*
X0087601Y0028770D01*
X0087689Y0028644D01*
X0087773Y0028516D01*
X0087855Y0028386D01*
X0087932Y0028254D01*
X0088007Y0028120D01*
X0088078Y0027984D01*
X0088145Y0027846D01*
X0088209Y0027706D01*
X0088269Y0027565D01*
X0088325Y0027423D01*
X0088378Y0027279D01*
X0088427Y0027133D01*
X0088472Y0026987D01*
X0088513Y0026839D01*
X0088550Y0026691D01*
X0088584Y0026541D01*
X0088614Y0026390D01*
X0088639Y0026239D01*
X0088661Y0026088D01*
X0088679Y0025935D01*
X0088693Y0025783D01*
X0088703Y0025630D01*
X0088709Y0025476D01*
X0088711Y0025323D01*
X0088709Y0025170D01*
X0088703Y0025016D01*
X0088693Y0024863D01*
X0088679Y0024711D01*
X0088661Y0024558D01*
X0088639Y0024407D01*
X0088614Y0024256D01*
X0088584Y0024105D01*
X0088550Y0023955D01*
X0088513Y0023807D01*
X0088472Y0023659D01*
X0088427Y0023513D01*
X0088378Y0023367D01*
X0088325Y0023223D01*
X0088269Y0023081D01*
X0088209Y0022940D01*
X0088145Y0022800D01*
X0088078Y0022662D01*
X0088007Y0022526D01*
X0087932Y0022392D01*
X0087855Y0022260D01*
X0087773Y0022130D01*
X0087689Y0022002D01*
X0087601Y0021876D01*
X0087510Y0021753D01*
X0087416Y0021632D01*
X0087318Y0021514D01*
X0087218Y0021398D01*
X0087114Y0021285D01*
X0087008Y0021174D01*
X0086899Y0021066D01*
X0086787Y0020961D01*
X0086673Y0020860D01*
X0086555Y0020761D01*
X0086436Y0020665D01*
X0086314Y0020572D01*
X0086189Y0020483D01*
X0086062Y0020396D01*
X0085933Y0020314D01*
X0085802Y0020234D01*
X0085669Y0020158D01*
X0085534Y0020085D01*
X0085397Y0020016D01*
X0085258Y0019951D01*
X0085118Y0019889D01*
X0084976Y0019831D01*
X0084833Y0019776D01*
X0084688Y0019725D01*
X0084542Y0019678D01*
X0084395Y0019635D01*
X0084247Y0019596D01*
X0084098Y0019560D01*
X0083948Y0019529D01*
X0083797Y0019501D01*
X0083646Y0019477D01*
X0083493Y0019457D01*
X0083341Y0019441D01*
X0083188Y0019429D01*
X0083035Y0019421D01*
X0082882Y0019417D01*
X0082728Y0019417D01*
X0082575Y0019421D01*
X0082422Y0019429D01*
X0082269Y0019441D01*
X0082117Y0019457D01*
X0081964Y0019477D01*
X0081813Y0019501D01*
X0081662Y0019529D01*
X0081512Y0019560D01*
X0081363Y0019596D01*
X0081215Y0019635D01*
X0081068Y0019678D01*
X0080922Y0019725D01*
X0080777Y0019776D01*
X0080634Y0019831D01*
X0080492Y0019889D01*
X0080352Y0019951D01*
X0080213Y0020016D01*
X0080076Y0020085D01*
X0079941Y0020158D01*
X0079808Y0020234D01*
X0079677Y0020314D01*
X0079548Y0020396D01*
X0079421Y0020483D01*
X0079296Y0020572D01*
X0079174Y0020665D01*
X0079055Y0020761D01*
X0078937Y0020860D01*
X0078823Y0020961D01*
X0078711Y0021066D01*
X0078602Y0021174D01*
X0078496Y0021285D01*
X0078392Y0021398D01*
X0078292Y0021514D01*
X0078194Y0021632D01*
X0078100Y0021753D01*
X0078009Y0021876D01*
X0077921Y0022002D01*
X0077837Y0022130D01*
X0077755Y0022260D01*
X0077678Y0022392D01*
X0077603Y0022526D01*
X0077532Y0022662D01*
X0077465Y0022800D01*
X0077401Y0022940D01*
X0077341Y0023081D01*
X0077285Y0023223D01*
X0077232Y0023367D01*
X0077183Y0023513D01*
X0077138Y0023659D01*
X0077097Y0023807D01*
X0077060Y0023955D01*
X0077026Y0024105D01*
X0076996Y0024256D01*
X0076971Y0024407D01*
X0076949Y0024558D01*
X0076931Y0024711D01*
X0076917Y0024863D01*
X0076907Y0025016D01*
X0076901Y0025170D01*
X0076899Y0025323D01*
D12*
X0073738Y0024950D02*
X0070135Y0024950D01*
X0070135Y0026752D01*
X0070736Y0027352D01*
X0071937Y0027352D01*
X0072537Y0026752D01*
X0072537Y0024950D01*
X0072537Y0026151D02*
X0073738Y0027352D01*
X0073738Y0029834D02*
X0070135Y0029834D01*
X0070135Y0028633D02*
X0070135Y0031035D01*
X0070135Y0023669D02*
X0070135Y0021267D01*
X0073738Y0021267D01*
X0073738Y0023669D01*
X0071937Y0022468D02*
X0071937Y0021267D01*
X0073738Y0019986D02*
X0073738Y0017584D01*
X0070135Y0017584D01*
X0071336Y0016303D02*
X0073738Y0016303D01*
X0071937Y0016303D02*
X0071937Y0013901D01*
X0071336Y0013901D02*
X0070135Y0015102D01*
X0071336Y0016303D01*
X0071336Y0013901D02*
X0073738Y0013901D01*
X0067738Y0013901D02*
X0064135Y0013901D01*
X0064135Y0015702D01*
X0064736Y0016303D01*
X0065937Y0016303D01*
X0066537Y0015702D01*
X0066537Y0013901D01*
X0066537Y0015102D02*
X0067738Y0016303D01*
X0067138Y0017584D02*
X0067738Y0018184D01*
X0067738Y0019385D01*
X0067138Y0019986D01*
X0066537Y0019986D01*
X0065937Y0019385D01*
X0065937Y0018184D01*
X0065336Y0017584D01*
X0064736Y0017584D01*
X0064135Y0018184D01*
X0064135Y0019385D01*
X0064736Y0019986D01*
X0064135Y0021267D02*
X0064135Y0023669D01*
X0064135Y0022468D02*
X0067738Y0022468D01*
X0057738Y0023069D02*
X0057738Y0021267D01*
X0054135Y0021267D01*
X0054135Y0023069D01*
X0054736Y0023669D01*
X0057138Y0023669D01*
X0057738Y0023069D01*
X0057738Y0019986D02*
X0054135Y0019986D01*
X0054135Y0017584D02*
X0057738Y0019986D01*
X0057738Y0017584D02*
X0054135Y0017584D01*
X0054736Y0016303D02*
X0054135Y0015702D01*
X0054135Y0014501D01*
X0054736Y0013901D01*
X0057138Y0013901D01*
X0057738Y0014501D01*
X0057738Y0015702D01*
X0057138Y0016303D01*
X0055937Y0016303D01*
X0055937Y0015102D01*
X0047738Y0015102D02*
X0046537Y0016303D01*
X0044135Y0016303D01*
X0044135Y0017584D02*
X0044135Y0019385D01*
X0044736Y0019986D01*
X0047138Y0019986D01*
X0047738Y0019385D01*
X0047738Y0017584D01*
X0044135Y0017584D01*
X0044135Y0021267D02*
X0044135Y0023069D01*
X0044736Y0023669D01*
X0047138Y0023669D01*
X0047738Y0023069D01*
X0047738Y0021267D01*
X0044135Y0021267D01*
X0037738Y0021267D02*
X0035336Y0021267D01*
X0034135Y0022468D01*
X0035336Y0023669D01*
X0037738Y0023669D01*
X0035937Y0023669D02*
X0035937Y0021267D01*
X0037138Y0019986D02*
X0034736Y0019986D01*
X0034135Y0019385D01*
X0034135Y0017584D01*
X0037738Y0017584D01*
X0037738Y0019385D01*
X0037138Y0019986D01*
X0037138Y0016303D02*
X0036537Y0016303D01*
X0035937Y0015702D01*
X0035937Y0014501D01*
X0035336Y0013901D01*
X0034736Y0013901D01*
X0034135Y0014501D01*
X0034135Y0015702D01*
X0034736Y0016303D01*
X0037138Y0016303D02*
X0037738Y0015702D01*
X0037738Y0014501D01*
X0037138Y0013901D01*
X0030738Y0014501D02*
X0030138Y0013901D01*
X0030738Y0014501D02*
X0030738Y0015702D01*
X0030138Y0016303D01*
X0029537Y0016303D01*
X0028937Y0015702D01*
X0028937Y0014501D01*
X0028336Y0013901D01*
X0027736Y0013901D01*
X0027135Y0014501D01*
X0027135Y0015702D01*
X0027736Y0016303D01*
X0027736Y0017584D02*
X0030138Y0017584D01*
X0030738Y0018184D01*
X0030738Y0019385D01*
X0030138Y0019986D01*
X0030738Y0021267D02*
X0030738Y0023669D01*
X0030738Y0021267D02*
X0027135Y0021267D01*
X0027736Y0019986D02*
X0027135Y0019385D01*
X0027135Y0018184D01*
X0027736Y0017584D01*
X0044135Y0013901D02*
X0046537Y0013901D01*
X0047738Y0015102D01*
D13*
X0047938Y0035701D02*
X0047938Y0046701D01*
X0052938Y0046701D01*
X0052938Y0035701D01*
X0047938Y0035701D01*
X0044538Y0035701D02*
X0039538Y0035701D01*
X0039538Y0046701D01*
X0044538Y0046701D01*
X0044538Y0035701D01*
X0045438Y0050601D02*
X0040438Y0050601D01*
X0040438Y0061601D01*
X0045438Y0061601D01*
X0045438Y0050601D01*
X0046383Y0056401D02*
X0046383Y0061401D01*
X0057383Y0061401D01*
X0057383Y0056401D01*
X0046383Y0056401D01*
X0058114Y0061613D02*
X0058114Y0050613D01*
X0063114Y0050613D01*
X0063114Y0061613D01*
X0058114Y0061613D01*
X0057214Y0070795D02*
X0045403Y0070795D01*
X0045403Y0081326D01*
X0046683Y0082606D01*
X0057214Y0082606D01*
X0057214Y0070795D01*
X0081309Y0013000D02*
X0021309Y0013000D01*
X0021309Y0003000D01*
X0081309Y0003000D01*
X0081309Y0013000D01*
D14*
X0068468Y0040677D02*
X0068470Y0040724D01*
X0068476Y0040770D01*
X0068485Y0040816D01*
X0068499Y0040860D01*
X0068516Y0040904D01*
X0068537Y0040945D01*
X0068561Y0040985D01*
X0068588Y0041023D01*
X0068619Y0041058D01*
X0068652Y0041091D01*
X0068688Y0041121D01*
X0068727Y0041147D01*
X0068767Y0041171D01*
X0068809Y0041190D01*
X0068853Y0041207D01*
X0068898Y0041219D01*
X0068944Y0041228D01*
X0068990Y0041233D01*
X0069037Y0041234D01*
X0069083Y0041231D01*
X0069129Y0041224D01*
X0069175Y0041213D01*
X0069219Y0041199D01*
X0069262Y0041181D01*
X0069303Y0041159D01*
X0069343Y0041134D01*
X0069380Y0041106D01*
X0069415Y0041075D01*
X0069447Y0041041D01*
X0069476Y0041004D01*
X0069501Y0040966D01*
X0069524Y0040925D01*
X0069543Y0040882D01*
X0069558Y0040838D01*
X0069570Y0040793D01*
X0069578Y0040747D01*
X0069582Y0040700D01*
X0069582Y0040654D01*
X0069578Y0040607D01*
X0069570Y0040561D01*
X0069558Y0040516D01*
X0069543Y0040472D01*
X0069524Y0040429D01*
X0069501Y0040388D01*
X0069476Y0040350D01*
X0069447Y0040313D01*
X0069415Y0040279D01*
X0069380Y0040248D01*
X0069343Y0040220D01*
X0069304Y0040195D01*
X0069262Y0040173D01*
X0069219Y0040155D01*
X0069175Y0040141D01*
X0069129Y0040130D01*
X0069083Y0040123D01*
X0069037Y0040120D01*
X0068990Y0040121D01*
X0068944Y0040126D01*
X0068898Y0040135D01*
X0068853Y0040147D01*
X0068809Y0040164D01*
X0068767Y0040183D01*
X0068727Y0040207D01*
X0068688Y0040233D01*
X0068652Y0040263D01*
X0068619Y0040296D01*
X0068588Y0040331D01*
X0068561Y0040369D01*
X0068537Y0040409D01*
X0068516Y0040450D01*
X0068499Y0040494D01*
X0068485Y0040538D01*
X0068476Y0040584D01*
X0068470Y0040630D01*
X0068468Y0040677D01*
X0033035Y0060362D02*
X0033037Y0060409D01*
X0033043Y0060455D01*
X0033052Y0060501D01*
X0033066Y0060545D01*
X0033083Y0060589D01*
X0033104Y0060630D01*
X0033128Y0060670D01*
X0033155Y0060708D01*
X0033186Y0060743D01*
X0033219Y0060776D01*
X0033255Y0060806D01*
X0033294Y0060832D01*
X0033334Y0060856D01*
X0033376Y0060875D01*
X0033420Y0060892D01*
X0033465Y0060904D01*
X0033511Y0060913D01*
X0033557Y0060918D01*
X0033604Y0060919D01*
X0033650Y0060916D01*
X0033696Y0060909D01*
X0033742Y0060898D01*
X0033786Y0060884D01*
X0033829Y0060866D01*
X0033870Y0060844D01*
X0033910Y0060819D01*
X0033947Y0060791D01*
X0033982Y0060760D01*
X0034014Y0060726D01*
X0034043Y0060689D01*
X0034068Y0060651D01*
X0034091Y0060610D01*
X0034110Y0060567D01*
X0034125Y0060523D01*
X0034137Y0060478D01*
X0034145Y0060432D01*
X0034149Y0060385D01*
X0034149Y0060339D01*
X0034145Y0060292D01*
X0034137Y0060246D01*
X0034125Y0060201D01*
X0034110Y0060157D01*
X0034091Y0060114D01*
X0034068Y0060073D01*
X0034043Y0060035D01*
X0034014Y0059998D01*
X0033982Y0059964D01*
X0033947Y0059933D01*
X0033910Y0059905D01*
X0033871Y0059880D01*
X0033829Y0059858D01*
X0033786Y0059840D01*
X0033742Y0059826D01*
X0033696Y0059815D01*
X0033650Y0059808D01*
X0033604Y0059805D01*
X0033557Y0059806D01*
X0033511Y0059811D01*
X0033465Y0059820D01*
X0033420Y0059832D01*
X0033376Y0059849D01*
X0033334Y0059868D01*
X0033294Y0059892D01*
X0033255Y0059918D01*
X0033219Y0059948D01*
X0033186Y0059981D01*
X0033155Y0060016D01*
X0033128Y0060054D01*
X0033104Y0060094D01*
X0033083Y0060135D01*
X0033066Y0060179D01*
X0033052Y0060223D01*
X0033043Y0060269D01*
X0033037Y0060315D01*
X0033035Y0060362D01*
D15*
X0031033Y0059378D02*
X0031033Y0062331D01*
X0024537Y0062331D01*
X0014301Y0056425D02*
X0014301Y0044614D01*
X0024537Y0038709D02*
X0031033Y0038709D01*
X0031033Y0041661D01*
X0071584Y0041661D02*
X0071584Y0038709D01*
X0078080Y0038709D01*
X0088316Y0044614D02*
X0088316Y0056425D01*
X0078080Y0062331D02*
X0071584Y0062331D01*
X0071584Y0059378D01*
D16*
X0044809Y0083201D03*
M02*
