G75*
%MOIN*%
%OFA0B0*%
%FSLAX25Y25*%
%IPPOS*%
%LPD*%
%AMOC8*
5,1,8,0,0,1.08239X$1,22.5*
%
%ADD10C,0.00100*%
%ADD11C,0.00000*%
D10*
X0011938Y0001701D02*
X0011938Y0066268D01*
X0039498Y0066268D01*
X0039498Y0088315D01*
X0063120Y0088315D01*
X0063120Y0066268D01*
X0090679Y0066268D01*
X0090679Y0001701D01*
X0011938Y0001701D01*
D11*
X0013906Y0025323D02*
X0013908Y0025476D01*
X0013914Y0025630D01*
X0013924Y0025783D01*
X0013938Y0025935D01*
X0013956Y0026088D01*
X0013978Y0026239D01*
X0014003Y0026390D01*
X0014033Y0026541D01*
X0014067Y0026691D01*
X0014104Y0026839D01*
X0014145Y0026987D01*
X0014190Y0027133D01*
X0014239Y0027279D01*
X0014292Y0027423D01*
X0014348Y0027565D01*
X0014408Y0027706D01*
X0014472Y0027846D01*
X0014539Y0027984D01*
X0014610Y0028120D01*
X0014685Y0028254D01*
X0014762Y0028386D01*
X0014844Y0028516D01*
X0014928Y0028644D01*
X0015016Y0028770D01*
X0015107Y0028893D01*
X0015201Y0029014D01*
X0015299Y0029132D01*
X0015399Y0029248D01*
X0015503Y0029361D01*
X0015609Y0029472D01*
X0015718Y0029580D01*
X0015830Y0029685D01*
X0015944Y0029786D01*
X0016062Y0029885D01*
X0016181Y0029981D01*
X0016303Y0030074D01*
X0016428Y0030163D01*
X0016555Y0030250D01*
X0016684Y0030332D01*
X0016815Y0030412D01*
X0016948Y0030488D01*
X0017083Y0030561D01*
X0017220Y0030630D01*
X0017359Y0030695D01*
X0017499Y0030757D01*
X0017641Y0030815D01*
X0017784Y0030870D01*
X0017929Y0030921D01*
X0018075Y0030968D01*
X0018222Y0031011D01*
X0018370Y0031050D01*
X0018519Y0031086D01*
X0018669Y0031117D01*
X0018820Y0031145D01*
X0018971Y0031169D01*
X0019124Y0031189D01*
X0019276Y0031205D01*
X0019429Y0031217D01*
X0019582Y0031225D01*
X0019735Y0031229D01*
X0019889Y0031229D01*
X0020042Y0031225D01*
X0020195Y0031217D01*
X0020348Y0031205D01*
X0020500Y0031189D01*
X0020653Y0031169D01*
X0020804Y0031145D01*
X0020955Y0031117D01*
X0021105Y0031086D01*
X0021254Y0031050D01*
X0021402Y0031011D01*
X0021549Y0030968D01*
X0021695Y0030921D01*
X0021840Y0030870D01*
X0021983Y0030815D01*
X0022125Y0030757D01*
X0022265Y0030695D01*
X0022404Y0030630D01*
X0022541Y0030561D01*
X0022676Y0030488D01*
X0022809Y0030412D01*
X0022940Y0030332D01*
X0023069Y0030250D01*
X0023196Y0030163D01*
X0023321Y0030074D01*
X0023443Y0029981D01*
X0023562Y0029885D01*
X0023680Y0029786D01*
X0023794Y0029685D01*
X0023906Y0029580D01*
X0024015Y0029472D01*
X0024121Y0029361D01*
X0024225Y0029248D01*
X0024325Y0029132D01*
X0024423Y0029014D01*
X0024517Y0028893D01*
X0024608Y0028770D01*
X0024696Y0028644D01*
X0024780Y0028516D01*
X0024862Y0028386D01*
X0024939Y0028254D01*
X0025014Y0028120D01*
X0025085Y0027984D01*
X0025152Y0027846D01*
X0025216Y0027706D01*
X0025276Y0027565D01*
X0025332Y0027423D01*
X0025385Y0027279D01*
X0025434Y0027133D01*
X0025479Y0026987D01*
X0025520Y0026839D01*
X0025557Y0026691D01*
X0025591Y0026541D01*
X0025621Y0026390D01*
X0025646Y0026239D01*
X0025668Y0026088D01*
X0025686Y0025935D01*
X0025700Y0025783D01*
X0025710Y0025630D01*
X0025716Y0025476D01*
X0025718Y0025323D01*
X0025716Y0025170D01*
X0025710Y0025016D01*
X0025700Y0024863D01*
X0025686Y0024711D01*
X0025668Y0024558D01*
X0025646Y0024407D01*
X0025621Y0024256D01*
X0025591Y0024105D01*
X0025557Y0023955D01*
X0025520Y0023807D01*
X0025479Y0023659D01*
X0025434Y0023513D01*
X0025385Y0023367D01*
X0025332Y0023223D01*
X0025276Y0023081D01*
X0025216Y0022940D01*
X0025152Y0022800D01*
X0025085Y0022662D01*
X0025014Y0022526D01*
X0024939Y0022392D01*
X0024862Y0022260D01*
X0024780Y0022130D01*
X0024696Y0022002D01*
X0024608Y0021876D01*
X0024517Y0021753D01*
X0024423Y0021632D01*
X0024325Y0021514D01*
X0024225Y0021398D01*
X0024121Y0021285D01*
X0024015Y0021174D01*
X0023906Y0021066D01*
X0023794Y0020961D01*
X0023680Y0020860D01*
X0023562Y0020761D01*
X0023443Y0020665D01*
X0023321Y0020572D01*
X0023196Y0020483D01*
X0023069Y0020396D01*
X0022940Y0020314D01*
X0022809Y0020234D01*
X0022676Y0020158D01*
X0022541Y0020085D01*
X0022404Y0020016D01*
X0022265Y0019951D01*
X0022125Y0019889D01*
X0021983Y0019831D01*
X0021840Y0019776D01*
X0021695Y0019725D01*
X0021549Y0019678D01*
X0021402Y0019635D01*
X0021254Y0019596D01*
X0021105Y0019560D01*
X0020955Y0019529D01*
X0020804Y0019501D01*
X0020653Y0019477D01*
X0020500Y0019457D01*
X0020348Y0019441D01*
X0020195Y0019429D01*
X0020042Y0019421D01*
X0019889Y0019417D01*
X0019735Y0019417D01*
X0019582Y0019421D01*
X0019429Y0019429D01*
X0019276Y0019441D01*
X0019124Y0019457D01*
X0018971Y0019477D01*
X0018820Y0019501D01*
X0018669Y0019529D01*
X0018519Y0019560D01*
X0018370Y0019596D01*
X0018222Y0019635D01*
X0018075Y0019678D01*
X0017929Y0019725D01*
X0017784Y0019776D01*
X0017641Y0019831D01*
X0017499Y0019889D01*
X0017359Y0019951D01*
X0017220Y0020016D01*
X0017083Y0020085D01*
X0016948Y0020158D01*
X0016815Y0020234D01*
X0016684Y0020314D01*
X0016555Y0020396D01*
X0016428Y0020483D01*
X0016303Y0020572D01*
X0016181Y0020665D01*
X0016062Y0020761D01*
X0015944Y0020860D01*
X0015830Y0020961D01*
X0015718Y0021066D01*
X0015609Y0021174D01*
X0015503Y0021285D01*
X0015399Y0021398D01*
X0015299Y0021514D01*
X0015201Y0021632D01*
X0015107Y0021753D01*
X0015016Y0021876D01*
X0014928Y0022002D01*
X0014844Y0022130D01*
X0014762Y0022260D01*
X0014685Y0022392D01*
X0014610Y0022526D01*
X0014539Y0022662D01*
X0014472Y0022800D01*
X0014408Y0022940D01*
X0014348Y0023081D01*
X0014292Y0023223D01*
X0014239Y0023367D01*
X0014190Y0023513D01*
X0014145Y0023659D01*
X0014104Y0023807D01*
X0014067Y0023955D01*
X0014033Y0024105D01*
X0014003Y0024256D01*
X0013978Y0024407D01*
X0013956Y0024558D01*
X0013938Y0024711D01*
X0013924Y0024863D01*
X0013914Y0025016D01*
X0013908Y0025170D01*
X0013906Y0025323D01*
X0076899Y0025323D02*
X0076901Y0025476D01*
X0076907Y0025630D01*
X0076917Y0025783D01*
X0076931Y0025935D01*
X0076949Y0026088D01*
X0076971Y0026239D01*
X0076996Y0026390D01*
X0077026Y0026541D01*
X0077060Y0026691D01*
X0077097Y0026839D01*
X0077138Y0026987D01*
X0077183Y0027133D01*
X0077232Y0027279D01*
X0077285Y0027423D01*
X0077341Y0027565D01*
X0077401Y0027706D01*
X0077465Y0027846D01*
X0077532Y0027984D01*
X0077603Y0028120D01*
X0077678Y0028254D01*
X0077755Y0028386D01*
X0077837Y0028516D01*
X0077921Y0028644D01*
X0078009Y0028770D01*
X0078100Y0028893D01*
X0078194Y0029014D01*
X0078292Y0029132D01*
X0078392Y0029248D01*
X0078496Y0029361D01*
X0078602Y0029472D01*
X0078711Y0029580D01*
X0078823Y0029685D01*
X0078937Y0029786D01*
X0079055Y0029885D01*
X0079174Y0029981D01*
X0079296Y0030074D01*
X0079421Y0030163D01*
X0079548Y0030250D01*
X0079677Y0030332D01*
X0079808Y0030412D01*
X0079941Y0030488D01*
X0080076Y0030561D01*
X0080213Y0030630D01*
X0080352Y0030695D01*
X0080492Y0030757D01*
X0080634Y0030815D01*
X0080777Y0030870D01*
X0080922Y0030921D01*
X0081068Y0030968D01*
X0081215Y0031011D01*
X0081363Y0031050D01*
X0081512Y0031086D01*
X0081662Y0031117D01*
X0081813Y0031145D01*
X0081964Y0031169D01*
X0082117Y0031189D01*
X0082269Y0031205D01*
X0082422Y0031217D01*
X0082575Y0031225D01*
X0082728Y0031229D01*
X0082882Y0031229D01*
X0083035Y0031225D01*
X0083188Y0031217D01*
X0083341Y0031205D01*
X0083493Y0031189D01*
X0083646Y0031169D01*
X0083797Y0031145D01*
X0083948Y0031117D01*
X0084098Y0031086D01*
X0084247Y0031050D01*
X0084395Y0031011D01*
X0084542Y0030968D01*
X0084688Y0030921D01*
X0084833Y0030870D01*
X0084976Y0030815D01*
X0085118Y0030757D01*
X0085258Y0030695D01*
X0085397Y0030630D01*
X0085534Y0030561D01*
X0085669Y0030488D01*
X0085802Y0030412D01*
X0085933Y0030332D01*
X0086062Y0030250D01*
X0086189Y0030163D01*
X0086314Y0030074D01*
X0086436Y0029981D01*
X0086555Y0029885D01*
X0086673Y0029786D01*
X0086787Y0029685D01*
X0086899Y0029580D01*
X0087008Y0029472D01*
X0087114Y0029361D01*
X0087218Y0029248D01*
X0087318Y0029132D01*
X0087416Y0029014D01*
X0087510Y0028893D01*
X0087601Y0028770D01*
X0087689Y0028644D01*
X0087773Y0028516D01*
X0087855Y0028386D01*
X0087932Y0028254D01*
X0088007Y0028120D01*
X0088078Y0027984D01*
X0088145Y0027846D01*
X0088209Y0027706D01*
X0088269Y0027565D01*
X0088325Y0027423D01*
X0088378Y0027279D01*
X0088427Y0027133D01*
X0088472Y0026987D01*
X0088513Y0026839D01*
X0088550Y0026691D01*
X0088584Y0026541D01*
X0088614Y0026390D01*
X0088639Y0026239D01*
X0088661Y0026088D01*
X0088679Y0025935D01*
X0088693Y0025783D01*
X0088703Y0025630D01*
X0088709Y0025476D01*
X0088711Y0025323D01*
X0088709Y0025170D01*
X0088703Y0025016D01*
X0088693Y0024863D01*
X0088679Y0024711D01*
X0088661Y0024558D01*
X0088639Y0024407D01*
X0088614Y0024256D01*
X0088584Y0024105D01*
X0088550Y0023955D01*
X0088513Y0023807D01*
X0088472Y0023659D01*
X0088427Y0023513D01*
X0088378Y0023367D01*
X0088325Y0023223D01*
X0088269Y0023081D01*
X0088209Y0022940D01*
X0088145Y0022800D01*
X0088078Y0022662D01*
X0088007Y0022526D01*
X0087932Y0022392D01*
X0087855Y0022260D01*
X0087773Y0022130D01*
X0087689Y0022002D01*
X0087601Y0021876D01*
X0087510Y0021753D01*
X0087416Y0021632D01*
X0087318Y0021514D01*
X0087218Y0021398D01*
X0087114Y0021285D01*
X0087008Y0021174D01*
X0086899Y0021066D01*
X0086787Y0020961D01*
X0086673Y0020860D01*
X0086555Y0020761D01*
X0086436Y0020665D01*
X0086314Y0020572D01*
X0086189Y0020483D01*
X0086062Y0020396D01*
X0085933Y0020314D01*
X0085802Y0020234D01*
X0085669Y0020158D01*
X0085534Y0020085D01*
X0085397Y0020016D01*
X0085258Y0019951D01*
X0085118Y0019889D01*
X0084976Y0019831D01*
X0084833Y0019776D01*
X0084688Y0019725D01*
X0084542Y0019678D01*
X0084395Y0019635D01*
X0084247Y0019596D01*
X0084098Y0019560D01*
X0083948Y0019529D01*
X0083797Y0019501D01*
X0083646Y0019477D01*
X0083493Y0019457D01*
X0083341Y0019441D01*
X0083188Y0019429D01*
X0083035Y0019421D01*
X0082882Y0019417D01*
X0082728Y0019417D01*
X0082575Y0019421D01*
X0082422Y0019429D01*
X0082269Y0019441D01*
X0082117Y0019457D01*
X0081964Y0019477D01*
X0081813Y0019501D01*
X0081662Y0019529D01*
X0081512Y0019560D01*
X0081363Y0019596D01*
X0081215Y0019635D01*
X0081068Y0019678D01*
X0080922Y0019725D01*
X0080777Y0019776D01*
X0080634Y0019831D01*
X0080492Y0019889D01*
X0080352Y0019951D01*
X0080213Y0020016D01*
X0080076Y0020085D01*
X0079941Y0020158D01*
X0079808Y0020234D01*
X0079677Y0020314D01*
X0079548Y0020396D01*
X0079421Y0020483D01*
X0079296Y0020572D01*
X0079174Y0020665D01*
X0079055Y0020761D01*
X0078937Y0020860D01*
X0078823Y0020961D01*
X0078711Y0021066D01*
X0078602Y0021174D01*
X0078496Y0021285D01*
X0078392Y0021398D01*
X0078292Y0021514D01*
X0078194Y0021632D01*
X0078100Y0021753D01*
X0078009Y0021876D01*
X0077921Y0022002D01*
X0077837Y0022130D01*
X0077755Y0022260D01*
X0077678Y0022392D01*
X0077603Y0022526D01*
X0077532Y0022662D01*
X0077465Y0022800D01*
X0077401Y0022940D01*
X0077341Y0023081D01*
X0077285Y0023223D01*
X0077232Y0023367D01*
X0077183Y0023513D01*
X0077138Y0023659D01*
X0077097Y0023807D01*
X0077060Y0023955D01*
X0077026Y0024105D01*
X0076996Y0024256D01*
X0076971Y0024407D01*
X0076949Y0024558D01*
X0076931Y0024711D01*
X0076917Y0024863D01*
X0076907Y0025016D01*
X0076901Y0025170D01*
X0076899Y0025323D01*
M02*
