G75*
%MOIN*%
%OFA0B0*%
%FSLAX25Y25*%
%IPPOS*%
%LPD*%
%AMOC8*
5,1,8,0,0,1.08239X$1,22.5*
%
%ADD10C,0.00100*%
%ADD11C,0.00000*%
%ADD12R,0.06000X0.06000*%
%ADD13C,0.06000*%
%ADD14R,0.02500X0.05000*%
%ADD15C,0.00800*%
%ADD16C,0.02400*%
%ADD17C,0.01200*%
%ADD18C,0.00700*%
D10*
X0011938Y0001701D02*
X0011938Y0066268D01*
X0039498Y0066268D01*
X0039498Y0088315D01*
X0063120Y0088315D01*
X0063120Y0066268D01*
X0090679Y0066268D01*
X0090679Y0001701D01*
X0011938Y0001701D01*
D11*
X0013906Y0025323D02*
X0013908Y0025476D01*
X0013914Y0025630D01*
X0013924Y0025783D01*
X0013938Y0025935D01*
X0013956Y0026088D01*
X0013978Y0026239D01*
X0014003Y0026390D01*
X0014033Y0026541D01*
X0014067Y0026691D01*
X0014104Y0026839D01*
X0014145Y0026987D01*
X0014190Y0027133D01*
X0014239Y0027279D01*
X0014292Y0027423D01*
X0014348Y0027565D01*
X0014408Y0027706D01*
X0014472Y0027846D01*
X0014539Y0027984D01*
X0014610Y0028120D01*
X0014685Y0028254D01*
X0014762Y0028386D01*
X0014844Y0028516D01*
X0014928Y0028644D01*
X0015016Y0028770D01*
X0015107Y0028893D01*
X0015201Y0029014D01*
X0015299Y0029132D01*
X0015399Y0029248D01*
X0015503Y0029361D01*
X0015609Y0029472D01*
X0015718Y0029580D01*
X0015830Y0029685D01*
X0015944Y0029786D01*
X0016062Y0029885D01*
X0016181Y0029981D01*
X0016303Y0030074D01*
X0016428Y0030163D01*
X0016555Y0030250D01*
X0016684Y0030332D01*
X0016815Y0030412D01*
X0016948Y0030488D01*
X0017083Y0030561D01*
X0017220Y0030630D01*
X0017359Y0030695D01*
X0017499Y0030757D01*
X0017641Y0030815D01*
X0017784Y0030870D01*
X0017929Y0030921D01*
X0018075Y0030968D01*
X0018222Y0031011D01*
X0018370Y0031050D01*
X0018519Y0031086D01*
X0018669Y0031117D01*
X0018820Y0031145D01*
X0018971Y0031169D01*
X0019124Y0031189D01*
X0019276Y0031205D01*
X0019429Y0031217D01*
X0019582Y0031225D01*
X0019735Y0031229D01*
X0019889Y0031229D01*
X0020042Y0031225D01*
X0020195Y0031217D01*
X0020348Y0031205D01*
X0020500Y0031189D01*
X0020653Y0031169D01*
X0020804Y0031145D01*
X0020955Y0031117D01*
X0021105Y0031086D01*
X0021254Y0031050D01*
X0021402Y0031011D01*
X0021549Y0030968D01*
X0021695Y0030921D01*
X0021840Y0030870D01*
X0021983Y0030815D01*
X0022125Y0030757D01*
X0022265Y0030695D01*
X0022404Y0030630D01*
X0022541Y0030561D01*
X0022676Y0030488D01*
X0022809Y0030412D01*
X0022940Y0030332D01*
X0023069Y0030250D01*
X0023196Y0030163D01*
X0023321Y0030074D01*
X0023443Y0029981D01*
X0023562Y0029885D01*
X0023680Y0029786D01*
X0023794Y0029685D01*
X0023906Y0029580D01*
X0024015Y0029472D01*
X0024121Y0029361D01*
X0024225Y0029248D01*
X0024325Y0029132D01*
X0024423Y0029014D01*
X0024517Y0028893D01*
X0024608Y0028770D01*
X0024696Y0028644D01*
X0024780Y0028516D01*
X0024862Y0028386D01*
X0024939Y0028254D01*
X0025014Y0028120D01*
X0025085Y0027984D01*
X0025152Y0027846D01*
X0025216Y0027706D01*
X0025276Y0027565D01*
X0025332Y0027423D01*
X0025385Y0027279D01*
X0025434Y0027133D01*
X0025479Y0026987D01*
X0025520Y0026839D01*
X0025557Y0026691D01*
X0025591Y0026541D01*
X0025621Y0026390D01*
X0025646Y0026239D01*
X0025668Y0026088D01*
X0025686Y0025935D01*
X0025700Y0025783D01*
X0025710Y0025630D01*
X0025716Y0025476D01*
X0025718Y0025323D01*
X0025716Y0025170D01*
X0025710Y0025016D01*
X0025700Y0024863D01*
X0025686Y0024711D01*
X0025668Y0024558D01*
X0025646Y0024407D01*
X0025621Y0024256D01*
X0025591Y0024105D01*
X0025557Y0023955D01*
X0025520Y0023807D01*
X0025479Y0023659D01*
X0025434Y0023513D01*
X0025385Y0023367D01*
X0025332Y0023223D01*
X0025276Y0023081D01*
X0025216Y0022940D01*
X0025152Y0022800D01*
X0025085Y0022662D01*
X0025014Y0022526D01*
X0024939Y0022392D01*
X0024862Y0022260D01*
X0024780Y0022130D01*
X0024696Y0022002D01*
X0024608Y0021876D01*
X0024517Y0021753D01*
X0024423Y0021632D01*
X0024325Y0021514D01*
X0024225Y0021398D01*
X0024121Y0021285D01*
X0024015Y0021174D01*
X0023906Y0021066D01*
X0023794Y0020961D01*
X0023680Y0020860D01*
X0023562Y0020761D01*
X0023443Y0020665D01*
X0023321Y0020572D01*
X0023196Y0020483D01*
X0023069Y0020396D01*
X0022940Y0020314D01*
X0022809Y0020234D01*
X0022676Y0020158D01*
X0022541Y0020085D01*
X0022404Y0020016D01*
X0022265Y0019951D01*
X0022125Y0019889D01*
X0021983Y0019831D01*
X0021840Y0019776D01*
X0021695Y0019725D01*
X0021549Y0019678D01*
X0021402Y0019635D01*
X0021254Y0019596D01*
X0021105Y0019560D01*
X0020955Y0019529D01*
X0020804Y0019501D01*
X0020653Y0019477D01*
X0020500Y0019457D01*
X0020348Y0019441D01*
X0020195Y0019429D01*
X0020042Y0019421D01*
X0019889Y0019417D01*
X0019735Y0019417D01*
X0019582Y0019421D01*
X0019429Y0019429D01*
X0019276Y0019441D01*
X0019124Y0019457D01*
X0018971Y0019477D01*
X0018820Y0019501D01*
X0018669Y0019529D01*
X0018519Y0019560D01*
X0018370Y0019596D01*
X0018222Y0019635D01*
X0018075Y0019678D01*
X0017929Y0019725D01*
X0017784Y0019776D01*
X0017641Y0019831D01*
X0017499Y0019889D01*
X0017359Y0019951D01*
X0017220Y0020016D01*
X0017083Y0020085D01*
X0016948Y0020158D01*
X0016815Y0020234D01*
X0016684Y0020314D01*
X0016555Y0020396D01*
X0016428Y0020483D01*
X0016303Y0020572D01*
X0016181Y0020665D01*
X0016062Y0020761D01*
X0015944Y0020860D01*
X0015830Y0020961D01*
X0015718Y0021066D01*
X0015609Y0021174D01*
X0015503Y0021285D01*
X0015399Y0021398D01*
X0015299Y0021514D01*
X0015201Y0021632D01*
X0015107Y0021753D01*
X0015016Y0021876D01*
X0014928Y0022002D01*
X0014844Y0022130D01*
X0014762Y0022260D01*
X0014685Y0022392D01*
X0014610Y0022526D01*
X0014539Y0022662D01*
X0014472Y0022800D01*
X0014408Y0022940D01*
X0014348Y0023081D01*
X0014292Y0023223D01*
X0014239Y0023367D01*
X0014190Y0023513D01*
X0014145Y0023659D01*
X0014104Y0023807D01*
X0014067Y0023955D01*
X0014033Y0024105D01*
X0014003Y0024256D01*
X0013978Y0024407D01*
X0013956Y0024558D01*
X0013938Y0024711D01*
X0013924Y0024863D01*
X0013914Y0025016D01*
X0013908Y0025170D01*
X0013906Y0025323D01*
X0076899Y0025323D02*
X0076901Y0025476D01*
X0076907Y0025630D01*
X0076917Y0025783D01*
X0076931Y0025935D01*
X0076949Y0026088D01*
X0076971Y0026239D01*
X0076996Y0026390D01*
X0077026Y0026541D01*
X0077060Y0026691D01*
X0077097Y0026839D01*
X0077138Y0026987D01*
X0077183Y0027133D01*
X0077232Y0027279D01*
X0077285Y0027423D01*
X0077341Y0027565D01*
X0077401Y0027706D01*
X0077465Y0027846D01*
X0077532Y0027984D01*
X0077603Y0028120D01*
X0077678Y0028254D01*
X0077755Y0028386D01*
X0077837Y0028516D01*
X0077921Y0028644D01*
X0078009Y0028770D01*
X0078100Y0028893D01*
X0078194Y0029014D01*
X0078292Y0029132D01*
X0078392Y0029248D01*
X0078496Y0029361D01*
X0078602Y0029472D01*
X0078711Y0029580D01*
X0078823Y0029685D01*
X0078937Y0029786D01*
X0079055Y0029885D01*
X0079174Y0029981D01*
X0079296Y0030074D01*
X0079421Y0030163D01*
X0079548Y0030250D01*
X0079677Y0030332D01*
X0079808Y0030412D01*
X0079941Y0030488D01*
X0080076Y0030561D01*
X0080213Y0030630D01*
X0080352Y0030695D01*
X0080492Y0030757D01*
X0080634Y0030815D01*
X0080777Y0030870D01*
X0080922Y0030921D01*
X0081068Y0030968D01*
X0081215Y0031011D01*
X0081363Y0031050D01*
X0081512Y0031086D01*
X0081662Y0031117D01*
X0081813Y0031145D01*
X0081964Y0031169D01*
X0082117Y0031189D01*
X0082269Y0031205D01*
X0082422Y0031217D01*
X0082575Y0031225D01*
X0082728Y0031229D01*
X0082882Y0031229D01*
X0083035Y0031225D01*
X0083188Y0031217D01*
X0083341Y0031205D01*
X0083493Y0031189D01*
X0083646Y0031169D01*
X0083797Y0031145D01*
X0083948Y0031117D01*
X0084098Y0031086D01*
X0084247Y0031050D01*
X0084395Y0031011D01*
X0084542Y0030968D01*
X0084688Y0030921D01*
X0084833Y0030870D01*
X0084976Y0030815D01*
X0085118Y0030757D01*
X0085258Y0030695D01*
X0085397Y0030630D01*
X0085534Y0030561D01*
X0085669Y0030488D01*
X0085802Y0030412D01*
X0085933Y0030332D01*
X0086062Y0030250D01*
X0086189Y0030163D01*
X0086314Y0030074D01*
X0086436Y0029981D01*
X0086555Y0029885D01*
X0086673Y0029786D01*
X0086787Y0029685D01*
X0086899Y0029580D01*
X0087008Y0029472D01*
X0087114Y0029361D01*
X0087218Y0029248D01*
X0087318Y0029132D01*
X0087416Y0029014D01*
X0087510Y0028893D01*
X0087601Y0028770D01*
X0087689Y0028644D01*
X0087773Y0028516D01*
X0087855Y0028386D01*
X0087932Y0028254D01*
X0088007Y0028120D01*
X0088078Y0027984D01*
X0088145Y0027846D01*
X0088209Y0027706D01*
X0088269Y0027565D01*
X0088325Y0027423D01*
X0088378Y0027279D01*
X0088427Y0027133D01*
X0088472Y0026987D01*
X0088513Y0026839D01*
X0088550Y0026691D01*
X0088584Y0026541D01*
X0088614Y0026390D01*
X0088639Y0026239D01*
X0088661Y0026088D01*
X0088679Y0025935D01*
X0088693Y0025783D01*
X0088703Y0025630D01*
X0088709Y0025476D01*
X0088711Y0025323D01*
X0088709Y0025170D01*
X0088703Y0025016D01*
X0088693Y0024863D01*
X0088679Y0024711D01*
X0088661Y0024558D01*
X0088639Y0024407D01*
X0088614Y0024256D01*
X0088584Y0024105D01*
X0088550Y0023955D01*
X0088513Y0023807D01*
X0088472Y0023659D01*
X0088427Y0023513D01*
X0088378Y0023367D01*
X0088325Y0023223D01*
X0088269Y0023081D01*
X0088209Y0022940D01*
X0088145Y0022800D01*
X0088078Y0022662D01*
X0088007Y0022526D01*
X0087932Y0022392D01*
X0087855Y0022260D01*
X0087773Y0022130D01*
X0087689Y0022002D01*
X0087601Y0021876D01*
X0087510Y0021753D01*
X0087416Y0021632D01*
X0087318Y0021514D01*
X0087218Y0021398D01*
X0087114Y0021285D01*
X0087008Y0021174D01*
X0086899Y0021066D01*
X0086787Y0020961D01*
X0086673Y0020860D01*
X0086555Y0020761D01*
X0086436Y0020665D01*
X0086314Y0020572D01*
X0086189Y0020483D01*
X0086062Y0020396D01*
X0085933Y0020314D01*
X0085802Y0020234D01*
X0085669Y0020158D01*
X0085534Y0020085D01*
X0085397Y0020016D01*
X0085258Y0019951D01*
X0085118Y0019889D01*
X0084976Y0019831D01*
X0084833Y0019776D01*
X0084688Y0019725D01*
X0084542Y0019678D01*
X0084395Y0019635D01*
X0084247Y0019596D01*
X0084098Y0019560D01*
X0083948Y0019529D01*
X0083797Y0019501D01*
X0083646Y0019477D01*
X0083493Y0019457D01*
X0083341Y0019441D01*
X0083188Y0019429D01*
X0083035Y0019421D01*
X0082882Y0019417D01*
X0082728Y0019417D01*
X0082575Y0019421D01*
X0082422Y0019429D01*
X0082269Y0019441D01*
X0082117Y0019457D01*
X0081964Y0019477D01*
X0081813Y0019501D01*
X0081662Y0019529D01*
X0081512Y0019560D01*
X0081363Y0019596D01*
X0081215Y0019635D01*
X0081068Y0019678D01*
X0080922Y0019725D01*
X0080777Y0019776D01*
X0080634Y0019831D01*
X0080492Y0019889D01*
X0080352Y0019951D01*
X0080213Y0020016D01*
X0080076Y0020085D01*
X0079941Y0020158D01*
X0079808Y0020234D01*
X0079677Y0020314D01*
X0079548Y0020396D01*
X0079421Y0020483D01*
X0079296Y0020572D01*
X0079174Y0020665D01*
X0079055Y0020761D01*
X0078937Y0020860D01*
X0078823Y0020961D01*
X0078711Y0021066D01*
X0078602Y0021174D01*
X0078496Y0021285D01*
X0078392Y0021398D01*
X0078292Y0021514D01*
X0078194Y0021632D01*
X0078100Y0021753D01*
X0078009Y0021876D01*
X0077921Y0022002D01*
X0077837Y0022130D01*
X0077755Y0022260D01*
X0077678Y0022392D01*
X0077603Y0022526D01*
X0077532Y0022662D01*
X0077465Y0022800D01*
X0077401Y0022940D01*
X0077341Y0023081D01*
X0077285Y0023223D01*
X0077232Y0023367D01*
X0077183Y0023513D01*
X0077138Y0023659D01*
X0077097Y0023807D01*
X0077060Y0023955D01*
X0077026Y0024105D01*
X0076996Y0024256D01*
X0076971Y0024407D01*
X0076949Y0024558D01*
X0076931Y0024711D01*
X0076917Y0024863D01*
X0076907Y0025016D01*
X0076901Y0025170D01*
X0076899Y0025323D01*
D12*
X0026309Y0008000D03*
D13*
X0036309Y0008000D03*
X0046309Y0008000D03*
X0056309Y0008000D03*
X0066309Y0008000D03*
X0076309Y0008000D03*
D14*
X0039738Y0027101D03*
X0036538Y0027101D03*
X0033338Y0027101D03*
X0034338Y0061201D03*
X0031138Y0061201D03*
D15*
X0026738Y0061201D01*
X0026638Y0061301D01*
X0045838Y0069301D02*
X0045838Y0044501D01*
X0045838Y0041201D01*
X0045838Y0027530D01*
X0026309Y0008000D01*
X0036309Y0008000D02*
X0048238Y0019930D01*
X0048238Y0037901D01*
X0049038Y0038701D01*
X0048238Y0039501D01*
X0048238Y0037901D01*
X0049038Y0038701D02*
X0054638Y0038701D01*
X0048238Y0039501D02*
X0048238Y0048701D01*
X0048238Y0083701D01*
X0047538Y0084401D01*
X0050538Y0064301D02*
X0052538Y0062301D01*
X0066438Y0062301D01*
X0040038Y0033201D02*
X0039738Y0032901D01*
X0039738Y0027101D01*
X0039838Y0027101D02*
X0036538Y0027101D01*
X0033138Y0027101D01*
X0033338Y0027101D02*
X0033338Y0033001D01*
X0033438Y0033101D01*
X0039738Y0032901D02*
X0040038Y0033201D01*
D16*
X0040038Y0033201D03*
X0033438Y0033101D03*
X0034238Y0021301D03*
X0031438Y0005701D03*
X0041438Y0005701D03*
X0019438Y0005701D03*
X0054638Y0038701D03*
X0057238Y0036101D03*
X0045838Y0041201D03*
X0048238Y0048701D03*
X0051938Y0048701D03*
X0051938Y0052701D03*
X0057238Y0049901D03*
X0064538Y0057301D03*
X0066438Y0062301D03*
X0057938Y0065701D03*
X0057938Y0068701D03*
X0050938Y0068701D03*
X0050538Y0064301D03*
X0045838Y0069301D03*
X0043138Y0062901D03*
X0038138Y0061201D03*
X0026638Y0061301D03*
X0017938Y0055701D03*
X0017938Y0051701D03*
X0017938Y0047701D03*
X0050938Y0075701D03*
X0050938Y0078701D03*
X0050938Y0084701D03*
X0047538Y0084401D03*
X0042938Y0084701D03*
X0042938Y0081701D03*
X0054938Y0084701D03*
X0058938Y0084701D03*
X0084938Y0055701D03*
X0084938Y0051701D03*
X0084938Y0047701D03*
X0083438Y0005701D03*
X0071438Y0005701D03*
D17*
X0057238Y0018930D02*
X0046309Y0008000D01*
X0057238Y0018930D02*
X0057238Y0036101D01*
X0057238Y0049901D01*
X0036538Y0027101D02*
X0036538Y0023601D01*
X0034238Y0021301D01*
D18*
X0036488Y0021217D02*
X0036488Y0020369D01*
X0035170Y0019051D01*
X0033306Y0019051D01*
X0031988Y0020369D01*
X0031988Y0022233D01*
X0033306Y0023551D01*
X0034155Y0023551D01*
X0034155Y0023551D01*
X0031654Y0023551D01*
X0031038Y0024166D01*
X0031038Y0030036D01*
X0031654Y0030651D01*
X0031888Y0030651D01*
X0031888Y0031469D01*
X0031188Y0032169D01*
X0031188Y0034033D01*
X0032506Y0035351D01*
X0034370Y0035351D01*
X0035688Y0034033D01*
X0035688Y0032169D01*
X0034788Y0031269D01*
X0034788Y0030651D01*
X0038288Y0030651D01*
X0038288Y0031769D01*
X0037788Y0032269D01*
X0037788Y0034133D01*
X0039106Y0035451D01*
X0040970Y0035451D01*
X0042288Y0034133D01*
X0042288Y0032269D01*
X0041188Y0031169D01*
X0041188Y0030651D01*
X0041423Y0030651D01*
X0042038Y0030036D01*
X0042038Y0025780D01*
X0044388Y0028131D01*
X0044388Y0039469D01*
X0043588Y0040269D01*
X0043588Y0042133D01*
X0044388Y0042933D01*
X0044388Y0067569D01*
X0043588Y0068369D01*
X0043588Y0070233D01*
X0044906Y0071551D01*
X0046770Y0071551D01*
X0046788Y0071533D01*
X0046788Y0082151D01*
X0046606Y0082151D01*
X0045288Y0083469D01*
X0045288Y0085333D01*
X0045871Y0085915D01*
X0041897Y0085915D01*
X0041897Y0065790D01*
X0041532Y0064908D01*
X0040857Y0064233D01*
X0039975Y0063868D01*
X0036638Y0063868D01*
X0036638Y0062883D01*
X0037206Y0063451D01*
X0039070Y0063451D01*
X0040388Y0062133D01*
X0040388Y0060269D01*
X0039070Y0058951D01*
X0037206Y0058951D01*
X0036638Y0059519D01*
X0036638Y0058266D01*
X0036023Y0057651D01*
X0029454Y0057651D01*
X0028838Y0058266D01*
X0028838Y0059751D01*
X0028270Y0059751D01*
X0027570Y0059051D01*
X0025706Y0059051D01*
X0024388Y0060369D01*
X0024388Y0062233D01*
X0025706Y0063551D01*
X0027570Y0063551D01*
X0028470Y0062651D01*
X0028838Y0062651D01*
X0028838Y0063868D01*
X0014338Y0063868D01*
X0014338Y0031524D01*
X0015136Y0032322D01*
X0018170Y0033578D01*
X0021455Y0033578D01*
X0024489Y0032322D01*
X0026811Y0029999D01*
X0028068Y0026965D01*
X0028068Y0023681D01*
X0026811Y0020646D01*
X0024489Y0018324D01*
X0021455Y0017067D01*
X0018170Y0017067D01*
X0015136Y0018324D01*
X0014338Y0019122D01*
X0014338Y0004101D01*
X0022723Y0004101D01*
X0022259Y0004565D01*
X0022259Y0011435D01*
X0022874Y0012050D01*
X0028308Y0012050D01*
X0039809Y0023551D01*
X0038188Y0023551D01*
X0038188Y0022917D01*
X0036488Y0021217D01*
X0036530Y0021259D02*
X0037517Y0021259D01*
X0037229Y0021958D02*
X0038216Y0021958D01*
X0037927Y0022656D02*
X0038914Y0022656D01*
X0039613Y0023355D02*
X0038188Y0023355D01*
X0036819Y0020561D02*
X0036488Y0020561D01*
X0036120Y0019862D02*
X0035982Y0019862D01*
X0035422Y0019164D02*
X0035283Y0019164D01*
X0034723Y0018465D02*
X0024630Y0018465D01*
X0025328Y0019164D02*
X0033194Y0019164D01*
X0032495Y0019862D02*
X0026027Y0019862D01*
X0026725Y0020561D02*
X0031988Y0020561D01*
X0031988Y0021259D02*
X0027065Y0021259D01*
X0027354Y0021958D02*
X0031988Y0021958D01*
X0032412Y0022656D02*
X0027644Y0022656D01*
X0027933Y0023355D02*
X0033110Y0023355D01*
X0031151Y0024053D02*
X0028068Y0024053D01*
X0028068Y0024752D02*
X0031038Y0024752D01*
X0031038Y0025450D02*
X0028068Y0025450D01*
X0028068Y0026149D02*
X0031038Y0026149D01*
X0031038Y0026847D02*
X0028068Y0026847D01*
X0027827Y0027546D02*
X0031038Y0027546D01*
X0031038Y0028244D02*
X0027538Y0028244D01*
X0027249Y0028943D02*
X0031038Y0028943D01*
X0031038Y0029641D02*
X0026959Y0029641D01*
X0026471Y0030340D02*
X0031342Y0030340D01*
X0031888Y0031038D02*
X0025772Y0031038D01*
X0025074Y0031737D02*
X0031620Y0031737D01*
X0031188Y0032435D02*
X0024214Y0032435D01*
X0022528Y0033134D02*
X0031188Y0033134D01*
X0031188Y0033832D02*
X0014338Y0033832D01*
X0014338Y0033134D02*
X0017097Y0033134D01*
X0015411Y0032435D02*
X0014338Y0032435D01*
X0014338Y0031737D02*
X0014551Y0031737D01*
X0014338Y0034531D02*
X0031687Y0034531D01*
X0032385Y0035229D02*
X0014338Y0035229D01*
X0014338Y0035928D02*
X0044388Y0035928D01*
X0044388Y0036626D02*
X0014338Y0036626D01*
X0014338Y0037325D02*
X0044388Y0037325D01*
X0044388Y0038023D02*
X0014338Y0038023D01*
X0014338Y0038722D02*
X0044388Y0038722D01*
X0044388Y0039420D02*
X0014338Y0039420D01*
X0014338Y0040119D02*
X0043738Y0040119D01*
X0043588Y0040817D02*
X0014338Y0040817D01*
X0014338Y0041516D02*
X0043588Y0041516D01*
X0043670Y0042214D02*
X0014338Y0042214D01*
X0014338Y0042913D02*
X0044369Y0042913D01*
X0044388Y0043611D02*
X0014338Y0043611D01*
X0014338Y0044310D02*
X0044388Y0044310D01*
X0044388Y0045008D02*
X0014338Y0045008D01*
X0014338Y0045707D02*
X0044388Y0045707D01*
X0044388Y0046406D02*
X0014338Y0046406D01*
X0014338Y0047104D02*
X0044388Y0047104D01*
X0044388Y0047803D02*
X0014338Y0047803D01*
X0014338Y0048501D02*
X0044388Y0048501D01*
X0044388Y0049200D02*
X0014338Y0049200D01*
X0014338Y0049898D02*
X0044388Y0049898D01*
X0044388Y0050597D02*
X0014338Y0050597D01*
X0014338Y0051295D02*
X0044388Y0051295D01*
X0044388Y0051994D02*
X0014338Y0051994D01*
X0014338Y0052692D02*
X0044388Y0052692D01*
X0044388Y0053391D02*
X0014338Y0053391D01*
X0014338Y0054089D02*
X0044388Y0054089D01*
X0044388Y0054788D02*
X0014338Y0054788D01*
X0014338Y0055486D02*
X0044388Y0055486D01*
X0044388Y0056185D02*
X0014338Y0056185D01*
X0014338Y0056883D02*
X0044388Y0056883D01*
X0044388Y0057582D02*
X0014338Y0057582D01*
X0014338Y0058280D02*
X0028838Y0058280D01*
X0028838Y0058979D02*
X0014338Y0058979D01*
X0014338Y0059677D02*
X0025080Y0059677D01*
X0024388Y0060376D02*
X0014338Y0060376D01*
X0014338Y0061074D02*
X0024388Y0061074D01*
X0024388Y0061773D02*
X0014338Y0061773D01*
X0014338Y0062471D02*
X0024627Y0062471D01*
X0025325Y0063170D02*
X0014338Y0063170D01*
X0027951Y0063170D02*
X0028838Y0063170D01*
X0028838Y0059677D02*
X0028197Y0059677D01*
X0034338Y0061201D02*
X0038138Y0061201D01*
X0039797Y0059677D02*
X0044388Y0059677D01*
X0044388Y0058979D02*
X0039098Y0058979D01*
X0040388Y0060376D02*
X0044388Y0060376D01*
X0044388Y0061074D02*
X0040388Y0061074D01*
X0040388Y0061773D02*
X0044388Y0061773D01*
X0044388Y0062471D02*
X0040050Y0062471D01*
X0039351Y0063170D02*
X0044388Y0063170D01*
X0044388Y0063868D02*
X0039976Y0063868D01*
X0041191Y0064567D02*
X0044388Y0064567D01*
X0044388Y0065265D02*
X0041680Y0065265D01*
X0041897Y0065964D02*
X0044388Y0065964D01*
X0044388Y0066662D02*
X0041897Y0066662D01*
X0041897Y0067361D02*
X0044388Y0067361D01*
X0043898Y0068059D02*
X0041897Y0068059D01*
X0041897Y0068758D02*
X0043588Y0068758D01*
X0043588Y0069456D02*
X0041897Y0069456D01*
X0041897Y0070155D02*
X0043588Y0070155D01*
X0044209Y0070853D02*
X0041897Y0070853D01*
X0041897Y0071552D02*
X0046788Y0071552D01*
X0046788Y0072250D02*
X0041897Y0072250D01*
X0041897Y0072949D02*
X0046788Y0072949D01*
X0046788Y0073647D02*
X0041897Y0073647D01*
X0041897Y0074346D02*
X0046788Y0074346D01*
X0046788Y0075044D02*
X0041897Y0075044D01*
X0041897Y0075743D02*
X0046788Y0075743D01*
X0046788Y0076441D02*
X0041897Y0076441D01*
X0041897Y0077140D02*
X0046788Y0077140D01*
X0046788Y0077839D02*
X0041897Y0077839D01*
X0041897Y0078537D02*
X0046788Y0078537D01*
X0046788Y0079236D02*
X0041897Y0079236D01*
X0041897Y0079934D02*
X0046788Y0079934D01*
X0046788Y0080633D02*
X0041897Y0080633D01*
X0041897Y0081331D02*
X0046788Y0081331D01*
X0046788Y0082030D02*
X0041897Y0082030D01*
X0041897Y0082728D02*
X0046029Y0082728D01*
X0045331Y0083427D02*
X0041897Y0083427D01*
X0041897Y0084125D02*
X0045288Y0084125D01*
X0045288Y0084824D02*
X0041897Y0084824D01*
X0041897Y0085522D02*
X0045478Y0085522D01*
X0049206Y0085915D02*
X0060720Y0085915D01*
X0060720Y0065790D01*
X0061085Y0064908D01*
X0061760Y0064233D01*
X0062642Y0063868D01*
X0064823Y0063868D01*
X0064706Y0063751D01*
X0053139Y0063751D01*
X0052788Y0064101D01*
X0052788Y0065233D01*
X0051470Y0066551D01*
X0049688Y0066551D01*
X0049688Y0083369D01*
X0049788Y0083469D01*
X0049788Y0085333D01*
X0049206Y0085915D01*
X0049599Y0085522D02*
X0060720Y0085522D01*
X0060720Y0084824D02*
X0049788Y0084824D01*
X0049788Y0084125D02*
X0060720Y0084125D01*
X0060720Y0083427D02*
X0049746Y0083427D01*
X0049688Y0082728D02*
X0060720Y0082728D01*
X0060720Y0082030D02*
X0049688Y0082030D01*
X0049688Y0081331D02*
X0060720Y0081331D01*
X0060720Y0080633D02*
X0049688Y0080633D01*
X0049688Y0079934D02*
X0060720Y0079934D01*
X0060720Y0079236D02*
X0049688Y0079236D01*
X0049688Y0078537D02*
X0060720Y0078537D01*
X0060720Y0077839D02*
X0049688Y0077839D01*
X0049688Y0077140D02*
X0060720Y0077140D01*
X0060720Y0076441D02*
X0049688Y0076441D01*
X0049688Y0075743D02*
X0060720Y0075743D01*
X0060720Y0075044D02*
X0049688Y0075044D01*
X0049688Y0074346D02*
X0060720Y0074346D01*
X0060720Y0073647D02*
X0049688Y0073647D01*
X0049688Y0072949D02*
X0060720Y0072949D01*
X0060720Y0072250D02*
X0049688Y0072250D01*
X0049688Y0071552D02*
X0060720Y0071552D01*
X0060720Y0070853D02*
X0049688Y0070853D01*
X0049688Y0070155D02*
X0060720Y0070155D01*
X0060720Y0069456D02*
X0049688Y0069456D01*
X0049688Y0068758D02*
X0060720Y0068758D01*
X0060720Y0068059D02*
X0049688Y0068059D01*
X0049688Y0067361D02*
X0060720Y0067361D01*
X0060720Y0066662D02*
X0049688Y0066662D01*
X0052057Y0065964D02*
X0060720Y0065964D01*
X0060937Y0065265D02*
X0052756Y0065265D01*
X0052788Y0064567D02*
X0061426Y0064567D01*
X0062641Y0063868D02*
X0053022Y0063868D01*
X0050738Y0062051D02*
X0049688Y0062051D01*
X0049688Y0050433D01*
X0050488Y0049633D01*
X0050488Y0047769D01*
X0049688Y0046969D01*
X0049688Y0040151D01*
X0052906Y0040151D01*
X0053706Y0040951D01*
X0055570Y0040951D01*
X0055588Y0040933D01*
X0055588Y0048369D01*
X0054988Y0048969D01*
X0054988Y0050833D01*
X0056306Y0052151D01*
X0058170Y0052151D01*
X0059488Y0050833D01*
X0059488Y0048969D01*
X0058888Y0048369D01*
X0058888Y0037633D01*
X0059488Y0037033D01*
X0059488Y0035169D01*
X0058888Y0034569D01*
X0058888Y0018246D01*
X0050092Y0009450D01*
X0050359Y0008806D01*
X0050359Y0007194D01*
X0049742Y0005706D01*
X0048603Y0004567D01*
X0047478Y0004101D01*
X0054380Y0004101D01*
X0054029Y0004280D01*
X0053475Y0004682D01*
X0052991Y0005166D01*
X0052588Y0005720D01*
X0052277Y0006330D01*
X0052066Y0006981D01*
X0051960Y0007650D01*
X0055958Y0007650D01*
X0055958Y0008350D01*
X0051960Y0008350D01*
X0052066Y0009019D01*
X0052277Y0009670D01*
X0052588Y0010280D01*
X0052991Y0010834D01*
X0053475Y0011318D01*
X0054029Y0011720D01*
X0054639Y0012031D01*
X0055290Y0012243D01*
X0055959Y0012349D01*
X0055959Y0008350D01*
X0056659Y0008350D01*
X0060657Y0008350D01*
X0060551Y0009019D01*
X0060340Y0009670D01*
X0060029Y0010280D01*
X0059627Y0010834D01*
X0059142Y0011318D01*
X0058588Y0011720D01*
X0057978Y0012031D01*
X0057327Y0012243D01*
X0056659Y0012349D01*
X0056659Y0008350D01*
X0056659Y0007650D01*
X0060657Y0007650D01*
X0060551Y0006981D01*
X0060340Y0006330D01*
X0060029Y0005720D01*
X0059627Y0005166D01*
X0059142Y0004682D01*
X0058588Y0004280D01*
X0058238Y0004101D01*
X0065139Y0004101D01*
X0064014Y0004567D01*
X0062875Y0005706D01*
X0062259Y0007194D01*
X0062259Y0008806D01*
X0062875Y0010294D01*
X0064014Y0011433D01*
X0065503Y0012050D01*
X0067114Y0012050D01*
X0068603Y0011433D01*
X0069742Y0010294D01*
X0070359Y0008806D01*
X0070359Y0007194D01*
X0069742Y0005706D01*
X0068603Y0004567D01*
X0067478Y0004101D01*
X0075139Y0004101D01*
X0074014Y0004567D01*
X0072875Y0005706D01*
X0072259Y0007194D01*
X0072259Y0008806D01*
X0072875Y0010294D01*
X0074014Y0011433D01*
X0075503Y0012050D01*
X0077114Y0012050D01*
X0078603Y0011433D01*
X0079742Y0010294D01*
X0080359Y0008806D01*
X0080359Y0007194D01*
X0079742Y0005706D01*
X0078603Y0004567D01*
X0077478Y0004101D01*
X0088279Y0004101D01*
X0088279Y0019122D01*
X0087481Y0018324D01*
X0084447Y0017067D01*
X0081162Y0017067D01*
X0078128Y0018324D01*
X0075806Y0020646D01*
X0074549Y0023681D01*
X0074549Y0026965D01*
X0075806Y0029999D01*
X0078128Y0032322D01*
X0081162Y0033578D01*
X0084447Y0033578D01*
X0087481Y0032322D01*
X0088279Y0031524D01*
X0088279Y0063868D01*
X0068053Y0063868D01*
X0068688Y0063233D01*
X0068688Y0061369D01*
X0067370Y0060051D01*
X0065506Y0060051D01*
X0064706Y0060851D01*
X0051938Y0060851D01*
X0050738Y0062051D01*
X0051016Y0061773D02*
X0049688Y0061773D01*
X0049688Y0061074D02*
X0051714Y0061074D01*
X0049688Y0060376D02*
X0065182Y0060376D01*
X0067695Y0060376D02*
X0088279Y0060376D01*
X0088279Y0061074D02*
X0068394Y0061074D01*
X0068688Y0061773D02*
X0088279Y0061773D01*
X0088279Y0062471D02*
X0068688Y0062471D01*
X0068688Y0063170D02*
X0088279Y0063170D01*
X0088279Y0059677D02*
X0049688Y0059677D01*
X0049688Y0058979D02*
X0088279Y0058979D01*
X0088279Y0058280D02*
X0049688Y0058280D01*
X0049688Y0057582D02*
X0088279Y0057582D01*
X0088279Y0056883D02*
X0049688Y0056883D01*
X0049688Y0056185D02*
X0088279Y0056185D01*
X0088279Y0055486D02*
X0049688Y0055486D01*
X0049688Y0054788D02*
X0088279Y0054788D01*
X0088279Y0054089D02*
X0049688Y0054089D01*
X0049688Y0053391D02*
X0088279Y0053391D01*
X0088279Y0052692D02*
X0049688Y0052692D01*
X0049688Y0051994D02*
X0056149Y0051994D01*
X0055451Y0051295D02*
X0049688Y0051295D01*
X0049688Y0050597D02*
X0054988Y0050597D01*
X0054988Y0049898D02*
X0050223Y0049898D01*
X0050488Y0049200D02*
X0054988Y0049200D01*
X0055456Y0048501D02*
X0050488Y0048501D01*
X0050488Y0047803D02*
X0055588Y0047803D01*
X0055588Y0047104D02*
X0049824Y0047104D01*
X0049688Y0046406D02*
X0055588Y0046406D01*
X0055588Y0045707D02*
X0049688Y0045707D01*
X0049688Y0045008D02*
X0055588Y0045008D01*
X0055588Y0044310D02*
X0049688Y0044310D01*
X0049688Y0043611D02*
X0055588Y0043611D01*
X0055588Y0042913D02*
X0049688Y0042913D01*
X0049688Y0042214D02*
X0055588Y0042214D01*
X0055588Y0041516D02*
X0049688Y0041516D01*
X0049688Y0040817D02*
X0053573Y0040817D01*
X0052906Y0037251D02*
X0049688Y0037251D01*
X0049688Y0019329D01*
X0048839Y0018480D01*
X0040009Y0009650D01*
X0040359Y0008806D01*
X0040359Y0007194D01*
X0039742Y0005706D01*
X0038603Y0004567D01*
X0037478Y0004101D01*
X0045139Y0004101D01*
X0044014Y0004567D01*
X0042875Y0005706D01*
X0042259Y0007194D01*
X0042259Y0008806D01*
X0042875Y0010294D01*
X0044014Y0011433D01*
X0045503Y0012050D01*
X0047114Y0012050D01*
X0047758Y0011783D01*
X0055588Y0019613D01*
X0055588Y0034569D01*
X0054988Y0035169D01*
X0054988Y0036451D01*
X0053706Y0036451D01*
X0052906Y0037251D01*
X0053531Y0036626D02*
X0049688Y0036626D01*
X0049688Y0035928D02*
X0054988Y0035928D01*
X0054988Y0035229D02*
X0049688Y0035229D01*
X0049688Y0034531D02*
X0055588Y0034531D01*
X0055588Y0033832D02*
X0049688Y0033832D01*
X0049688Y0033134D02*
X0055588Y0033134D01*
X0055588Y0032435D02*
X0049688Y0032435D01*
X0049688Y0031737D02*
X0055588Y0031737D01*
X0055588Y0031038D02*
X0049688Y0031038D01*
X0049688Y0030340D02*
X0055588Y0030340D01*
X0055588Y0029641D02*
X0049688Y0029641D01*
X0049688Y0028943D02*
X0055588Y0028943D01*
X0055588Y0028244D02*
X0049688Y0028244D01*
X0049688Y0027546D02*
X0055588Y0027546D01*
X0055588Y0026847D02*
X0049688Y0026847D01*
X0049688Y0026149D02*
X0055588Y0026149D01*
X0055588Y0025450D02*
X0049688Y0025450D01*
X0049688Y0024752D02*
X0055588Y0024752D01*
X0055588Y0024053D02*
X0049688Y0024053D01*
X0049688Y0023355D02*
X0055588Y0023355D01*
X0055588Y0022656D02*
X0049688Y0022656D01*
X0049688Y0021958D02*
X0055588Y0021958D01*
X0055588Y0021259D02*
X0049688Y0021259D01*
X0049688Y0020561D02*
X0055588Y0020561D01*
X0055588Y0019862D02*
X0049688Y0019862D01*
X0049523Y0019164D02*
X0055139Y0019164D01*
X0054440Y0018465D02*
X0048824Y0018465D01*
X0048126Y0017767D02*
X0053742Y0017767D01*
X0053043Y0017068D02*
X0047427Y0017068D01*
X0046729Y0016370D02*
X0052345Y0016370D01*
X0051646Y0015671D02*
X0046030Y0015671D01*
X0045332Y0014973D02*
X0050948Y0014973D01*
X0050249Y0014274D02*
X0044633Y0014274D01*
X0043935Y0013575D02*
X0049551Y0013575D01*
X0048852Y0012877D02*
X0043236Y0012877D01*
X0042538Y0012178D02*
X0048154Y0012178D01*
X0050725Y0010083D02*
X0052488Y0010083D01*
X0052184Y0009384D02*
X0050119Y0009384D01*
X0050359Y0008686D02*
X0052013Y0008686D01*
X0052017Y0007289D02*
X0050359Y0007289D01*
X0050359Y0007987D02*
X0055958Y0007987D01*
X0055959Y0008686D02*
X0056659Y0008686D01*
X0056659Y0009384D02*
X0055959Y0009384D01*
X0055959Y0010083D02*
X0056659Y0010083D01*
X0056659Y0010781D02*
X0055959Y0010781D01*
X0055959Y0011480D02*
X0056659Y0011480D01*
X0056659Y0012178D02*
X0055959Y0012178D01*
X0055092Y0012178D02*
X0052820Y0012178D01*
X0052122Y0011480D02*
X0053698Y0011480D01*
X0052952Y0010781D02*
X0051423Y0010781D01*
X0053519Y0012877D02*
X0088279Y0012877D01*
X0088279Y0013575D02*
X0054217Y0013575D01*
X0054916Y0014274D02*
X0088279Y0014274D01*
X0088279Y0014973D02*
X0055614Y0014973D01*
X0056313Y0015671D02*
X0088279Y0015671D01*
X0088279Y0016370D02*
X0057011Y0016370D01*
X0057710Y0017068D02*
X0081161Y0017068D01*
X0079474Y0017767D02*
X0058409Y0017767D01*
X0058888Y0018465D02*
X0077987Y0018465D01*
X0077289Y0019164D02*
X0058888Y0019164D01*
X0058888Y0019862D02*
X0076590Y0019862D01*
X0075892Y0020561D02*
X0058888Y0020561D01*
X0058888Y0021259D02*
X0075552Y0021259D01*
X0075263Y0021958D02*
X0058888Y0021958D01*
X0058888Y0022656D02*
X0074973Y0022656D01*
X0074684Y0023355D02*
X0058888Y0023355D01*
X0058888Y0024053D02*
X0074549Y0024053D01*
X0074549Y0024752D02*
X0058888Y0024752D01*
X0058888Y0025450D02*
X0074549Y0025450D01*
X0074549Y0026149D02*
X0058888Y0026149D01*
X0058888Y0026847D02*
X0074549Y0026847D01*
X0074790Y0027546D02*
X0058888Y0027546D01*
X0058888Y0028244D02*
X0075079Y0028244D01*
X0075368Y0028943D02*
X0058888Y0028943D01*
X0058888Y0029641D02*
X0075658Y0029641D01*
X0076146Y0030340D02*
X0058888Y0030340D01*
X0058888Y0031038D02*
X0076845Y0031038D01*
X0077543Y0031737D02*
X0058888Y0031737D01*
X0058888Y0032435D02*
X0078403Y0032435D01*
X0080089Y0033134D02*
X0058888Y0033134D01*
X0058888Y0033832D02*
X0088279Y0033832D01*
X0088279Y0033134D02*
X0085520Y0033134D01*
X0087206Y0032435D02*
X0088279Y0032435D01*
X0088279Y0031737D02*
X0088066Y0031737D01*
X0088279Y0034531D02*
X0058888Y0034531D01*
X0059488Y0035229D02*
X0088279Y0035229D01*
X0088279Y0035928D02*
X0059488Y0035928D01*
X0059488Y0036626D02*
X0088279Y0036626D01*
X0088279Y0037325D02*
X0059196Y0037325D01*
X0058888Y0038023D02*
X0088279Y0038023D01*
X0088279Y0038722D02*
X0058888Y0038722D01*
X0058888Y0039420D02*
X0088279Y0039420D01*
X0088279Y0040119D02*
X0058888Y0040119D01*
X0058888Y0040817D02*
X0088279Y0040817D01*
X0088279Y0041516D02*
X0058888Y0041516D01*
X0058888Y0042214D02*
X0088279Y0042214D01*
X0088279Y0042913D02*
X0058888Y0042913D01*
X0058888Y0043611D02*
X0088279Y0043611D01*
X0088279Y0044310D02*
X0058888Y0044310D01*
X0058888Y0045008D02*
X0088279Y0045008D01*
X0088279Y0045707D02*
X0058888Y0045707D01*
X0058888Y0046406D02*
X0088279Y0046406D01*
X0088279Y0047104D02*
X0058888Y0047104D01*
X0058888Y0047803D02*
X0088279Y0047803D01*
X0088279Y0048501D02*
X0059021Y0048501D01*
X0059488Y0049200D02*
X0088279Y0049200D01*
X0088279Y0049898D02*
X0059488Y0049898D01*
X0059488Y0050597D02*
X0088279Y0050597D01*
X0088279Y0051295D02*
X0059026Y0051295D01*
X0058328Y0051994D02*
X0088279Y0051994D01*
X0088279Y0018465D02*
X0087622Y0018465D01*
X0088279Y0017767D02*
X0086135Y0017767D01*
X0084448Y0017068D02*
X0088279Y0017068D01*
X0088279Y0012178D02*
X0057525Y0012178D01*
X0058919Y0011480D02*
X0064127Y0011480D01*
X0063362Y0010781D02*
X0059665Y0010781D01*
X0060129Y0010083D02*
X0062788Y0010083D01*
X0062498Y0009384D02*
X0060433Y0009384D01*
X0060604Y0008686D02*
X0062259Y0008686D01*
X0062259Y0007987D02*
X0056659Y0007987D01*
X0059646Y0005193D02*
X0063388Y0005193D01*
X0062798Y0005892D02*
X0060116Y0005892D01*
X0060424Y0006590D02*
X0062509Y0006590D01*
X0062259Y0007289D02*
X0060600Y0007289D01*
X0058885Y0004495D02*
X0064188Y0004495D01*
X0068429Y0004495D02*
X0074188Y0004495D01*
X0073388Y0005193D02*
X0069229Y0005193D01*
X0069819Y0005892D02*
X0072798Y0005892D01*
X0072509Y0006590D02*
X0070108Y0006590D01*
X0070359Y0007289D02*
X0072259Y0007289D01*
X0072259Y0007987D02*
X0070359Y0007987D01*
X0070359Y0008686D02*
X0072259Y0008686D01*
X0072498Y0009384D02*
X0070119Y0009384D01*
X0069829Y0010083D02*
X0072788Y0010083D01*
X0073362Y0010781D02*
X0069255Y0010781D01*
X0068490Y0011480D02*
X0074127Y0011480D01*
X0078490Y0011480D02*
X0088279Y0011480D01*
X0088279Y0010781D02*
X0079255Y0010781D01*
X0079829Y0010083D02*
X0088279Y0010083D01*
X0088279Y0009384D02*
X0080119Y0009384D01*
X0080359Y0008686D02*
X0088279Y0008686D01*
X0088279Y0007987D02*
X0080359Y0007987D01*
X0080359Y0007289D02*
X0088279Y0007289D01*
X0088279Y0006590D02*
X0080108Y0006590D01*
X0079819Y0005892D02*
X0088279Y0005892D01*
X0088279Y0005193D02*
X0079229Y0005193D01*
X0078429Y0004495D02*
X0088279Y0004495D01*
X0053732Y0004495D02*
X0048429Y0004495D01*
X0049229Y0005193D02*
X0052971Y0005193D01*
X0052501Y0005892D02*
X0049819Y0005892D01*
X0050108Y0006590D02*
X0052193Y0006590D01*
X0044188Y0004495D02*
X0038429Y0004495D01*
X0039229Y0005193D02*
X0043388Y0005193D01*
X0042798Y0005892D02*
X0039819Y0005892D01*
X0040108Y0006590D02*
X0042509Y0006590D01*
X0042259Y0007289D02*
X0040359Y0007289D01*
X0040359Y0007987D02*
X0042259Y0007987D01*
X0042259Y0008686D02*
X0040359Y0008686D01*
X0040119Y0009384D02*
X0042498Y0009384D01*
X0042788Y0010083D02*
X0040442Y0010083D01*
X0041141Y0010781D02*
X0043362Y0010781D01*
X0044127Y0011480D02*
X0041839Y0011480D01*
X0039833Y0013575D02*
X0033935Y0013575D01*
X0033236Y0012877D02*
X0039135Y0012877D01*
X0038436Y0012178D02*
X0032538Y0012178D01*
X0031839Y0011480D02*
X0034127Y0011480D01*
X0034014Y0011433D02*
X0035503Y0012050D01*
X0037114Y0012050D01*
X0037958Y0011700D01*
X0046788Y0020531D01*
X0046788Y0026429D01*
X0030359Y0009999D01*
X0030359Y0004565D01*
X0029894Y0004101D01*
X0035139Y0004101D01*
X0034014Y0004567D01*
X0032875Y0005706D01*
X0032259Y0007194D01*
X0032259Y0008806D01*
X0032875Y0010294D01*
X0034014Y0011433D01*
X0033362Y0010781D02*
X0031141Y0010781D01*
X0030442Y0010083D02*
X0032788Y0010083D01*
X0032498Y0009384D02*
X0030359Y0009384D01*
X0030359Y0008686D02*
X0032259Y0008686D01*
X0032259Y0007987D02*
X0030359Y0007987D01*
X0030359Y0007289D02*
X0032259Y0007289D01*
X0032509Y0006590D02*
X0030359Y0006590D01*
X0030359Y0005892D02*
X0032798Y0005892D01*
X0033388Y0005193D02*
X0030359Y0005193D01*
X0030288Y0004495D02*
X0034188Y0004495D01*
X0028436Y0012178D02*
X0014338Y0012178D01*
X0014338Y0011480D02*
X0022304Y0011480D01*
X0022259Y0010781D02*
X0014338Y0010781D01*
X0014338Y0010083D02*
X0022259Y0010083D01*
X0022259Y0009384D02*
X0014338Y0009384D01*
X0014338Y0008686D02*
X0022259Y0008686D01*
X0022259Y0007987D02*
X0014338Y0007987D01*
X0014338Y0007289D02*
X0022259Y0007289D01*
X0022259Y0006590D02*
X0014338Y0006590D01*
X0014338Y0005892D02*
X0022259Y0005892D01*
X0022259Y0005193D02*
X0014338Y0005193D01*
X0014338Y0004495D02*
X0022329Y0004495D01*
X0029135Y0012877D02*
X0014338Y0012877D01*
X0014338Y0013575D02*
X0029833Y0013575D01*
X0030532Y0014274D02*
X0014338Y0014274D01*
X0014338Y0014973D02*
X0031230Y0014973D01*
X0031929Y0015671D02*
X0014338Y0015671D01*
X0014338Y0016370D02*
X0032627Y0016370D01*
X0033326Y0017068D02*
X0021456Y0017068D01*
X0023143Y0017767D02*
X0034024Y0017767D01*
X0036030Y0015671D02*
X0041929Y0015671D01*
X0042627Y0016370D02*
X0036729Y0016370D01*
X0037427Y0017068D02*
X0043326Y0017068D01*
X0044024Y0017767D02*
X0038126Y0017767D01*
X0038824Y0018465D02*
X0044723Y0018465D01*
X0045421Y0019164D02*
X0039523Y0019164D01*
X0040221Y0019862D02*
X0046120Y0019862D01*
X0046788Y0020561D02*
X0040920Y0020561D01*
X0041618Y0021259D02*
X0046788Y0021259D01*
X0046788Y0021958D02*
X0042317Y0021958D01*
X0043015Y0022656D02*
X0046788Y0022656D01*
X0046788Y0023355D02*
X0043714Y0023355D01*
X0044412Y0024053D02*
X0046788Y0024053D01*
X0046788Y0024752D02*
X0045111Y0024752D01*
X0045809Y0025450D02*
X0046788Y0025450D01*
X0046788Y0026149D02*
X0046508Y0026149D01*
X0044388Y0028244D02*
X0042038Y0028244D01*
X0042038Y0027546D02*
X0043804Y0027546D01*
X0043105Y0026847D02*
X0042038Y0026847D01*
X0042038Y0026149D02*
X0042407Y0026149D01*
X0042038Y0028943D02*
X0044388Y0028943D01*
X0044388Y0029641D02*
X0042038Y0029641D01*
X0041734Y0030340D02*
X0044388Y0030340D01*
X0044388Y0031038D02*
X0041188Y0031038D01*
X0041756Y0031737D02*
X0044388Y0031737D01*
X0044388Y0032435D02*
X0042288Y0032435D01*
X0042288Y0033134D02*
X0044388Y0033134D01*
X0044388Y0033832D02*
X0042288Y0033832D01*
X0041890Y0034531D02*
X0044388Y0034531D01*
X0044388Y0035229D02*
X0041192Y0035229D01*
X0038885Y0035229D02*
X0034492Y0035229D01*
X0035190Y0034531D02*
X0038187Y0034531D01*
X0037788Y0033832D02*
X0035688Y0033832D01*
X0035688Y0033134D02*
X0037788Y0033134D01*
X0037788Y0032435D02*
X0035688Y0032435D01*
X0035256Y0031737D02*
X0038288Y0031737D01*
X0038288Y0031038D02*
X0034788Y0031038D01*
X0035332Y0014973D02*
X0041230Y0014973D01*
X0040532Y0014274D02*
X0034633Y0014274D01*
X0018169Y0017068D02*
X0014338Y0017068D01*
X0014338Y0017767D02*
X0016482Y0017767D01*
X0014995Y0018465D02*
X0014338Y0018465D01*
X0036638Y0058280D02*
X0044388Y0058280D01*
X0037179Y0058979D02*
X0036638Y0058979D01*
X0036638Y0063170D02*
X0036925Y0063170D01*
M02*
